<svg width="53" height="46" viewBox="0 0 53 46" fill="none" xmlns="http://www.w3.org/2000/svg">
<path d="M30.2857 0C24.2615 0 18.484 2.42321 14.2243 6.73654C9.96453 11.0499 7.57143 16.9 7.57143 23H0L9.81762 32.9411L9.99429 33.2989L20.1905 23H12.619C12.619 13.11 20.5186 5.11111 30.2857 5.11111C40.0529 5.11111 47.9524 13.11 47.9524 23C47.9524 32.89 40.0529 40.8889 30.2857 40.8889C25.4148 40.8889 20.9981 38.87 17.8181 35.6244L14.2343 39.2533C16.3377 41.3949 18.8389 43.0937 21.5939 44.2516C24.3488 45.4095 27.3029 46.0037 30.2857 46C36.3099 46 42.0874 43.5768 46.3471 39.2634C50.6069 34.9501 53 29.1 53 23C53 16.9 50.6069 11.0499 46.3471 6.73654C42.0874 2.42321 36.3099 9.08967e-08 30.2857 0V0ZM27.7619 12.7778V25.5555L38.5638 32.0467L40.381 28.9544L31.5476 23.6389V12.7778H27.7619Z" fill="black"/>
</svg>
