<svg width="43" height="43" viewBox="0 0 43 43" fill="none" xmlns="http://www.w3.org/2000/svg">
<path d="M21.4375 0C9.59902 0 0 9.59902 0 21.4375C0 33.276 9.59902 42.875 21.4375 42.875C33.276 42.875 42.875 33.276 42.875 21.4375C42.875 9.59902 33.276 0 21.4375 0ZM29.9551 26.5576H27.7108C27.2228 26.5576 26.7586 26.3231 26.4715 25.926L21.4375 18.9684L16.4035 25.926C16.1164 26.3231 15.657 26.5576 15.1642 26.5576H12.9199C12.6089 26.5576 12.4271 26.2035 12.6089 25.9499L21.1265 14.1784C21.2796 13.9679 21.5906 13.9679 21.7438 14.1784L30.2613 25.9499C30.448 26.2035 30.2661 26.5576 29.9551 26.5576Z" fill="black"/>
</svg>
