<svg width="280" height="18" viewBox="0 0 280 18" fill="none" xmlns="http://www.w3.org/2000/svg">
<path d="M0 9L15 17.6603L15 0.339746L0 9ZM280 9L265 0.339746V17.6603L280 9ZM7.5 10.5L12.5 10.5V7.5L7.5 7.5V10.5ZM17.5 10.5L22.5 10.5V7.5L17.5 7.5V10.5ZM27.5 10.5H32.5V7.5L27.5 7.5V10.5ZM37.5 10.5L42.5 10.5V7.5L37.5 7.5V10.5ZM47.5 10.5L52.5 10.5V7.5L47.5 7.5V10.5ZM57.5 10.5H62.5V7.5L57.5 7.5V10.5ZM67.5 10.5L72.5 10.5V7.5L67.5 7.5V10.5ZM77.5 10.5L82.5 10.5V7.5L77.5 7.5V10.5ZM87.5 10.5L92.5 10.5V7.5L87.5 7.5V10.5ZM97.5 10.5L102.5 10.5V7.5L97.5 7.5V10.5ZM107.5 10.5H112.5V7.5L107.5 7.5V10.5ZM117.5 10.5L122.5 10.5V7.5L117.5 7.5V10.5ZM127.5 10.5H132.5V7.5L127.5 7.5V10.5ZM137.5 10.5L142.5 10.5V7.5L137.5 7.5V10.5ZM147.5 10.5L152.5 10.5V7.5L147.5 7.5V10.5ZM157.5 10.5H162.5V7.5L157.5 7.5V10.5ZM167.5 10.5L172.5 10.5V7.5L167.5 7.5V10.5ZM177.5 10.5L182.5 10.5V7.5L177.5 7.5V10.5ZM187.5 10.5H192.5V7.5L187.5 7.5V10.5ZM197.5 10.5L202.5 10.5V7.5L197.5 7.5V10.5ZM207.5 10.5H212.5V7.5L207.5 7.5V10.5ZM217.5 10.5H222.5V7.5L217.5 7.5V10.5ZM227.5 10.5L232.5 10.5V7.5L227.5 7.5V10.5ZM237.5 10.5H242.5V7.5L237.5 7.5V10.5ZM247.5 10.5L252.5 10.5V7.5L247.5 7.5V10.5ZM257.5 10.5L262.5 10.5V7.5L257.5 7.5V10.5ZM267.5 10.5L272.5 10.5V7.5L267.5 7.5V10.5Z" fill="white"/>
</svg>
