<svg width="44" height="46" viewBox="0 0 44 46" fill="none" xmlns="http://www.w3.org/2000/svg">
<path d="M38.821 25.2521C38.9152 24.5333 38.9623 23.7906 38.9623 23C38.9623 22.2333 38.9152 21.4667 38.7974 20.7479L43.5798 16.9625C43.7859 16.7898 43.9267 16.5497 43.9783 16.2832C44.0298 16.0167 43.9889 15.7403 43.8625 15.501L39.3393 7.54688C39.2061 7.30625 38.9935 7.12132 38.7391 7.02485C38.4846 6.92838 38.2049 6.92659 37.9493 7.0198L32.3187 9.3198C31.1408 8.40938 29.8922 7.64271 28.5022 7.06771L27.6541 0.982298C27.6124 0.708048 27.4753 0.458107 27.2678 0.277866C27.0603 0.0976256 26.7962 -0.000961938 26.5233 7.07585e-06H17.4767C16.9113 7.07585e-06 16.4637 0.407298 16.3694 0.982298L15.5213 7.06771C14.1314 7.64271 12.8592 8.43334 11.7048 9.3198L6.07426 7.0198C5.55597 6.82813 4.967 7.0198 4.68429 7.54688L0.184567 15.501C-0.0981387 16.0042 -0.00390385 16.6271 0.467272 16.9625L5.2497 20.7479C5.13191 21.4667 5.03768 22.2573 5.03768 23C5.03768 23.7427 5.08479 24.5333 5.20259 25.2521L0.420154 29.0375C0.214071 29.2102 0.0732599 29.4503 0.0217106 29.7168C-0.0298387 29.9833 0.0110639 30.2597 0.137449 30.499L4.66073 38.4531C4.94344 38.9802 5.53241 39.1479 6.0507 38.9802L11.6813 36.6802C12.8592 37.5906 14.1078 38.3573 15.4978 38.9323L16.3459 45.0177C16.4637 45.5927 16.9113 46 17.4767 46H26.5233C27.0887 46 27.5599 45.5927 27.6305 45.0177L28.4787 38.9323C29.8686 38.3573 31.1408 37.5906 32.2952 36.6802L37.9257 38.9802C38.444 39.1719 39.033 38.9802 39.3157 38.4531L43.839 30.499C44.1217 29.9719 44.0039 29.3729 43.5563 29.0375L38.821 25.2521V25.2521ZM22 31.625C17.3354 31.625 13.5188 27.7438 13.5188 23C13.5188 18.2563 17.3354 14.375 22 14.375C26.6646 14.375 30.4812 18.2563 30.4812 23C30.4812 27.7438 26.6646 31.625 22 31.625Z" fill="black"/>
</svg>
